<?xml version="1.0" encoding="UTF-8"?>
<svg xmlns="http://www.w3.org/2000/svg" xmlns:xlink="http://www.w3.org/1999/xlink" width="85px" height="27px" viewBox="0 0 85 27" version="1.1">
<defs>
<clipPath id="clip1">
  <path d="M 1.898438 5.363281 L 23 5.363281 L 23 24.167969 L 1.898438 24.167969 Z M 1.898438 5.363281 "/>
</clipPath>
<clipPath id="clip2">
  <path d="M 5 0.765625 L 25.675781 0.765625 L 25.675781 19.914062 L 5 19.914062 Z M 5 0.765625 "/>
</clipPath>
</defs>
<g id="surface1">
<g clip-path="url(#clip1)" clip-rule="nonzero">
<path style=" stroke:none;fill-rule:nonzero;fill:rgb(100%,100%,100%);fill-opacity:1;" d="M 19.324219 19.65625 C 19.324219 17.316406 19.324219 15.015625 19.324219 12.710938 C 19.28125 12.699219 19.238281 12.6875 19.195312 12.675781 C 17.472656 14.214844 15.742188 15.75 13.957031 17.34375 C 13.320312 16.78125 12.710938 16.242188 12.046875 15.65625 C 8.789062 18.558594 5.5625 21.4375 2.304688 24.339844 C 2.160156 24.257812 2.039062 24.1875 1.898438 24.109375 C 8.828125 17.925781 15.730469 11.769531 22.726562 5.527344 C 22.726562 10.296875 22.726562 14.964844 22.726562 19.65625 C 21.609375 19.65625 20.519531 19.65625 19.324219 19.65625 Z M 19.324219 19.65625 "/>
</g>
<g clip-path="url(#clip2)" clip-rule="nonzero">
<path style=" stroke:none;fill-rule:nonzero;fill:rgb(100%,100%,100%);fill-opacity:1;" d="M 5.191406 5.59375 C 7.71875 7.847656 10.167969 10.03125 12.675781 12.265625 C 12.863281 12.101562 13.03125 11.964844 13.1875 11.824219 C 17.207031 8.238281 21.21875 4.652344 25.242188 1.066406 C 25.425781 0.914062 25.589844 0.546875 26.03125 0.964844 C 20.984375 5.464844 15.933594 9.976562 10.824219 14.535156 C 10.109375 13.90625 9.433594 13.3125 8.671875 12.648438 C 8.648438 12.820312 8.613281 12.921875 8.613281 13.019531 C 8.613281 14.0625 8.628906 15.101562 8.601562 16.140625 C 8.59375 16.355469 8.480469 16.601562 8.296875 16.769531 C 7.3125 17.6875 6.28125 18.582031 5.191406 19.558594 C 5.191406 14.875 5.191406 10.285156 5.191406 5.59375 Z M 5.191406 5.59375 "/>
</g>
<path style=" stroke:none;fill-rule:nonzero;fill:rgb(100%,100%,100%);fill-opacity:1;" d="M 25.339844 12.992188 C 25.339844 13.289062 25.433594 13.554688 25.628906 13.792969 C 25.816406 14.03125 26.089844 14.222656 26.453125 14.355469 C 26.8125 14.492188 27.230469 14.558594 27.703125 14.558594 C 28.183594 14.558594 28.605469 14.492188 28.964844 14.355469 C 29.335938 14.222656 29.625 14.03125 29.828125 13.792969 C 30.027344 13.554688 30.128906 13.289062 30.128906 12.992188 L 30.128906 10.359375 L 29 10.359375 L 29 12.921875 C 29 13.25 28.882812 13.496094 28.644531 13.660156 C 28.417969 13.828125 28.109375 13.914062 27.71875 13.914062 C 27.335938 13.914062 27.027344 13.835938 26.792969 13.675781 C 26.5625 13.507812 26.453125 13.253906 26.453125 12.921875 L 26.453125 10.359375 L 25.324219 10.359375 Z M 25.339844 12.992188 "/>
<path style=" stroke:none;fill-rule:nonzero;fill:rgb(100%,100%,100%);fill-opacity:1;" d="M 31.164062 14.210938 C 31.355469 14.300781 31.628906 14.386719 31.992188 14.464844 C 32.351562 14.535156 32.648438 14.570312 32.886719 14.570312 C 33.34375 14.570312 33.738281 14.523438 34.066406 14.429688 C 34.390625 14.328125 34.640625 14.1875 34.808594 14.019531 C 34.976562 13.855469 35.0625 13.660156 35.0625 13.433594 C 35.0625 13.238281 34.996094 13.0625 34.859375 12.921875 C 34.722656 12.769531 34.554688 12.640625 34.351562 12.535156 C 34.160156 12.433594 33.898438 12.308594 33.5625 12.167969 L 33.308594 12.070312 L 33.039062 11.960938 C 32.742188 11.835938 32.53125 11.734375 32.398438 11.664062 C 32.269531 11.585938 32.210938 11.484375 32.210938 11.363281 C 32.210938 11.230469 32.289062 11.125 32.449219 11.054688 C 32.617188 10.980469 32.828125 10.945312 33.089844 10.945312 C 33.300781 10.945312 33.5 10.96875 33.695312 11.015625 C 33.898438 11.058594 34.109375 11.117188 34.335938 11.195312 L 34.707031 10.5625 C 34.101562 10.355469 33.550781 10.25 33.070312 10.25 C 32.652344 10.25 32.296875 10.300781 31.992188 10.394531 C 31.6875 10.492188 31.457031 10.621094 31.300781 10.789062 C 31.140625 10.957031 31.066406 11.148438 31.066406 11.363281 C 31.066406 11.566406 31.140625 11.746094 31.300781 11.902344 C 31.46875 12.0625 31.664062 12.203125 31.890625 12.320312 C 32.113281 12.433594 32.417969 12.574219 32.800781 12.742188 L 33.054688 12.847656 C 33.34375 12.960938 33.5625 13.0625 33.695312 13.148438 C 33.839844 13.226562 33.914062 13.320312 33.914062 13.421875 C 33.914062 13.566406 33.820312 13.679688 33.644531 13.757812 C 33.464844 13.828125 33.207031 13.867188 32.871094 13.867188 C 32.640625 13.867188 32.398438 13.839844 32.128906 13.78125 C 31.855469 13.71875 31.621094 13.648438 31.417969 13.578125 Z M 31.164062 14.210938 "/>
<path style=" stroke:none;fill-rule:nonzero;fill:rgb(100%,100%,100%);fill-opacity:1;" d="M 35.355469 10.96875 L 37.128906 10.96875 L 37.128906 14.488281 L 38.257812 14.488281 L 38.257812 10.96875 L 40.246094 10.96875 L 40.0625 10.359375 L 35.355469 10.359375 Z M 35.355469 10.96875 "/>
<path style=" stroke:none;fill-rule:nonzero;fill:rgb(100%,100%,100%);fill-opacity:1;" d="M 41.53125 14.488281 L 42.050781 13.519531 L 44.261719 13.519531 L 44.785156 14.546875 L 45.898438 14.441406 L 43.636719 10.359375 L 42.691406 10.359375 L 40.417969 14.488281 Z M 43.132812 11.4375 L 43.90625 12.871094 L 42.371094 12.871094 Z M 43.132812 11.4375 "/>
<path style=" stroke:none;fill-rule:nonzero;fill:rgb(100%,100%,100%);fill-opacity:1;" d="M 48.453125 13.050781 C 48.878906 13.050781 49.269531 13.003906 49.632812 12.90625 C 49.992188 12.804688 50.277344 12.652344 50.492188 12.441406 C 50.71875 12.234375 50.832031 11.980469 50.832031 11.675781 C 50.832031 11.230469 50.617188 10.898438 50.191406 10.683594 C 49.761719 10.464844 49.203125 10.359375 48.519531 10.359375 L 46.699219 10.359375 L 46.699219 14.488281 L 47.8125 14.488281 L 47.8125 13.050781 Z M 48.488281 11.003906 C 48.867188 11.003906 49.152344 11.0625 49.347656 11.171875 C 49.550781 11.285156 49.648438 11.46875 49.648438 11.722656 C 49.625 11.949219 49.515625 12.113281 49.3125 12.226562 C 49.117188 12.339844 48.847656 12.394531 48.503906 12.394531 L 47.8125 12.394531 L 47.8125 11.003906 Z M 48.488281 11.003906 "/>
<path style=" stroke:none;fill-rule:nonzero;fill:rgb(100%,100%,100%);fill-opacity:1;" d="M 55.171875 10.359375 L 55.171875 12.105469 L 52.878906 12.105469 L 52.878906 10.324219 L 51.765625 10.359375 L 51.765625 14.488281 L 52.878906 14.488281 L 52.878906 12.742188 L 55.171875 12.742188 L 55.171875 14.488281 L 56.269531 14.488281 L 56.269531 10.359375 Z M 55.171875 10.359375 "/>
<path style=" stroke:none;fill-rule:nonzero;fill:rgb(100%,100%,100%);fill-opacity:1;" d="M 58.195312 14.488281 L 58.71875 13.519531 L 60.929688 13.519531 L 61.453125 14.546875 L 62.566406 14.441406 L 60.304688 10.359375 L 59.359375 10.359375 L 57.085938 14.488281 Z M 59.800781 11.4375 L 60.574219 12.871094 L 59.039062 12.871094 Z M 59.800781 11.4375 "/>
<path style=" stroke:none;fill-rule:nonzero;fill:rgb(100%,100%,100%);fill-opacity:1;" d="M 27.367188 15.496094 C 26.800781 15.503906 26.304688 15.601562 25.863281 15.792969 C 25.425781 15.980469 25.089844 16.234375 24.851562 16.570312 C 24.617188 16.902344 24.5 17.269531 24.5 17.683594 C 24.5 18.089844 24.609375 18.460938 24.835938 18.785156 C 25.058594 19.105469 25.382812 19.359375 25.816406 19.550781 C 26.253906 19.738281 26.765625 19.828125 27.367188 19.828125 C 27.925781 19.816406 28.421875 19.726562 28.851562 19.539062 C 29.289062 19.355469 29.625 19.101562 29.863281 18.773438 C 30.105469 18.449219 30.234375 18.074219 30.234375 17.648438 C 30.234375 17.242188 30.121094 16.875 29.894531 16.546875 C 29.667969 16.222656 29.339844 15.96875 28.902344 15.78125 C 28.460938 15.589844 27.949219 15.496094 27.367188 15.496094 Z M 25.664062 17.683594 C 25.664062 17.382812 25.738281 17.117188 25.898438 16.882812 C 26.054688 16.652344 26.261719 16.476562 26.523438 16.355469 C 26.78125 16.230469 27.066406 16.164062 27.382812 16.164062 C 27.71875 16.164062 28.015625 16.230469 28.277344 16.355469 C 28.535156 16.484375 28.730469 16.660156 28.867188 16.882812 C 29.003906 17.105469 29.070312 17.359375 29.070312 17.648438 C 29.070312 17.976562 28.988281 18.253906 28.832031 18.484375 C 28.6875 18.71875 28.484375 18.890625 28.226562 19 C 27.964844 19.113281 27.675781 19.167969 27.347656 19.167969 C 27.011719 19.167969 26.710938 19.105469 26.457031 18.976562 C 26.195312 18.851562 26 18.675781 25.863281 18.449219 C 25.730469 18.230469 25.664062 17.972656 25.664062 17.683594 Z M 25.664062 17.683594 "/>
<path style=" stroke:none;fill-rule:nonzero;fill:rgb(100%,100%,100%);fill-opacity:1;" d="M 31.1875 18.234375 C 31.1875 18.53125 31.28125 18.796875 31.472656 19.035156 C 31.664062 19.277344 31.9375 19.46875 32.300781 19.609375 C 32.671875 19.746094 33.09375 19.816406 33.566406 19.816406 C 34.046875 19.816406 34.46875 19.746094 34.832031 19.609375 C 35.199219 19.46875 35.488281 19.28125 35.691406 19.046875 C 35.894531 18.808594 35.992188 18.539062 35.992188 18.234375 L 35.992188 15.589844 L 34.863281 15.589844 L 34.863281 18.175781 C 34.863281 18.496094 34.746094 18.742188 34.507812 18.917969 C 34.28125 19.085938 33.972656 19.167969 33.582031 19.167969 C 33.1875 19.167969 32.875 19.085938 32.636719 18.917969 C 32.410156 18.75 32.300781 18.503906 32.300781 18.175781 L 32.300781 15.589844 L 31.171875 15.589844 Z M 31.1875 18.234375 "/>
<path style=" stroke:none;fill-rule:nonzero;fill:rgb(100%,100%,100%);fill-opacity:1;" d="M 37.035156 19.46875 C 37.226562 19.558594 37.5 19.640625 37.863281 19.71875 C 38.222656 19.789062 38.519531 19.828125 38.757812 19.828125 C 39.214844 19.828125 39.609375 19.777344 39.9375 19.683594 C 40.273438 19.582031 40.527344 19.445312 40.695312 19.277344 C 40.863281 19.101562 40.949219 18.902344 40.949219 18.675781 C 40.949219 18.480469 40.882812 18.308594 40.746094 18.164062 C 40.613281 18.011719 40.441406 17.886719 40.242188 17.78125 C 40.039062 17.679688 39.769531 17.558594 39.429688 17.421875 L 39.179688 17.3125 L 38.910156 17.207031 C 38.613281 17.085938 38.402344 16.988281 38.265625 16.90625 C 38.140625 16.828125 38.082031 16.726562 38.082031 16.605469 C 38.082031 16.472656 38.15625 16.367188 38.316406 16.296875 C 38.488281 16.222656 38.699219 16.1875 38.957031 16.1875 C 39.183594 16.1875 39.390625 16.210938 39.582031 16.261719 C 39.773438 16.300781 39.988281 16.363281 40.222656 16.441406 L 40.59375 15.804688 C 39.988281 15.597656 39.433594 15.496094 38.941406 15.496094 C 38.523438 15.496094 38.167969 15.542969 37.863281 15.636719 C 37.558594 15.734375 37.328125 15.863281 37.171875 16.03125 C 37.011719 16.199219 36.933594 16.390625 36.933594 16.605469 C 36.933594 16.808594 37.011719 16.988281 37.171875 17.144531 C 37.339844 17.308594 37.535156 17.445312 37.761719 17.566406 C 37.984375 17.683594 38.289062 17.824219 38.671875 17.984375 L 38.941406 18.089844 C 39.234375 18.210938 39.449219 18.3125 39.582031 18.390625 C 39.726562 18.472656 39.800781 18.5625 39.800781 18.664062 C 39.800781 18.816406 39.710938 18.933594 39.53125 19.011719 C 39.351562 19.085938 39.085938 19.121094 38.738281 19.121094 C 38.523438 19.121094 38.285156 19.09375 38.015625 19.035156 C 37.746094 18.972656 37.5 18.90625 37.289062 18.832031 Z M 37.035156 19.46875 "/>
<path style=" stroke:none;fill-rule:nonzero;fill:rgb(100%,100%,100%);fill-opacity:1;" d="M 41.246094 16.210938 L 43.03125 16.210938 L 43.03125 19.742188 L 44.144531 19.742188 L 44.144531 16.210938 L 46.152344 16.210938 L 45.984375 15.589844 L 41.246094 15.589844 Z M 41.246094 16.210938 "/>
<path style=" stroke:none;fill-rule:nonzero;fill:rgb(100%,100%,100%);fill-opacity:1;" d="M 47.4375 19.742188 L 47.960938 18.761719 L 50.1875 18.761719 L 50.710938 19.800781 L 51.824219 19.695312 L 49.546875 15.589844 L 48.601562 15.589844 L 46.324219 19.742188 Z M 49.054688 16.679688 L 49.832031 18.128906 L 48.28125 18.128906 Z M 49.054688 16.679688 "/>
<path style=" stroke:none;fill-rule:nonzero;fill:rgb(100%,100%,100%);fill-opacity:1;" d="M 56.050781 15.589844 L 56.050781 17.347656 L 53.742188 17.347656 L 53.742188 15.566406 L 52.628906 15.589844 L 52.628906 19.742188 L 53.742188 19.742188 L 53.742188 17.984375 L 56.050781 17.984375 L 56.050781 19.742188 L 57.164062 19.742188 L 57.164062 15.589844 Z M 56.050781 15.589844 "/>
<path style=" stroke:none;fill-rule:nonzero;fill:rgb(100%,100%,100%);fill-opacity:1;" d="M 58.289062 19.46875 C 58.480469 19.558594 58.753906 19.640625 59.117188 19.71875 C 59.476562 19.789062 59.773438 19.828125 60.011719 19.828125 C 60.46875 19.828125 60.863281 19.777344 61.191406 19.683594 C 61.527344 19.582031 61.78125 19.445312 61.949219 19.277344 C 62.117188 19.101562 62.203125 18.902344 62.203125 18.675781 C 62.203125 18.480469 62.136719 18.308594 62 18.164062 C 61.867188 18.011719 61.695312 17.886719 61.496094 17.78125 C 61.292969 17.679688 61.023438 17.558594 60.683594 17.421875 L 60.433594 17.3125 L 60.164062 17.207031 C 59.867188 17.085938 59.65625 16.988281 59.519531 16.90625 C 59.394531 16.828125 59.335938 16.726562 59.335938 16.605469 C 59.335938 16.472656 59.410156 16.367188 59.570312 16.296875 C 59.742188 16.222656 59.953125 16.1875 60.210938 16.1875 C 60.4375 16.1875 60.644531 16.210938 60.835938 16.261719 C 61.027344 16.300781 61.242188 16.363281 61.476562 16.441406 L 61.847656 15.804688 C 61.242188 15.597656 60.6875 15.496094 60.195312 15.496094 C 59.777344 15.496094 59.421875 15.542969 59.117188 15.636719 C 58.8125 15.734375 58.582031 15.863281 58.425781 16.03125 C 58.265625 16.199219 58.1875 16.390625 58.1875 16.605469 C 58.1875 16.808594 58.265625 16.988281 58.425781 17.144531 C 58.59375 17.308594 58.789062 17.445312 59.015625 17.566406 C 59.238281 17.683594 59.542969 17.824219 59.925781 17.984375 L 60.195312 18.089844 C 60.488281 18.210938 60.703125 18.3125 60.835938 18.390625 C 60.980469 18.472656 61.054688 18.5625 61.054688 18.664062 C 61.054688 18.816406 60.964844 18.933594 60.785156 19.011719 C 60.605469 19.085938 60.339844 19.121094 59.992188 19.121094 C 59.777344 19.121094 59.539062 19.09375 59.269531 19.035156 C 59 18.972656 58.753906 18.90625 58.542969 18.832031 Z M 58.289062 19.46875 "/>
<path style=" stroke:none;fill-rule:nonzero;fill:rgb(100%,100%,100%);fill-opacity:1;" d="M 63.613281 19.742188 L 64.136719 18.761719 L 66.359375 18.761719 L 66.882812 19.800781 L 67.996094 19.695312 L 65.71875 15.589844 L 64.777344 15.589844 L 62.5 19.742188 Z M 65.230469 16.679688 L 66.007812 18.128906 L 64.457031 18.128906 Z M 65.230469 16.679688 "/>
<path style=" stroke:none;fill-rule:nonzero;fill:rgb(100%,100%,100%);fill-opacity:1;" d="M 72.632812 19.742188 L 73.746094 19.742188 L 73.746094 15.589844 L 72.632812 15.589844 L 72.632812 18.367188 L 69.917969 15.589844 L 68.804688 15.589844 L 68.804688 19.742188 L 69.917969 19.742188 L 69.917969 16.964844 Z M 72.632812 19.742188 "/>
<path style=" stroke:none;fill-rule:nonzero;fill:rgb(100%,100%,100%);fill-opacity:1;" d="M 76.3125 19.121094 L 76.3125 17.960938 L 78.402344 17.960938 L 78.214844 17.335938 L 76.3125 17.335938 L 76.3125 16.210938 L 78.875 16.210938 L 78.6875 15.589844 L 75.199219 15.589844 L 75.199219 19.742188 L 79.296875 19.742188 L 79.109375 19.121094 Z M 76.3125 19.121094 "/>
</g>
</svg>
