<svg xmlns="http://www.w3.org/2000/svg" xmlns:xlink="http://www.w3.org/1999/xlink" width="105" zoomAndPan="magnify" viewBox="0 0 78.75 35.25" height="47" preserveAspectRatio="xMidYMid meet" version="1.0"><defs><g/><clipPath id="f8b4a035cd"><path d="M 0.699219 0 L 77.808594 0 L 77.808594 34.515625 L 0.699219 34.515625 Z M 0.699219 0 " clip-rule="nonzero"/></clipPath><clipPath id="543ae3d90c"><path d="M 1.757812 7 L 22 7 L 22 31.554688 L 1.757812 31.554688 Z M 1.757812 7 " clip-rule="nonzero"/></clipPath><clipPath id="47ed11ed83"><path d="M 4 1 L 23.789062 1 L 23.789062 26 L 4 26 Z M 4 1 " clip-rule="nonzero"/></clipPath></defs><g clip-path="url(#f8b4a035cd)"><path fill="#ffffff" d="M 0.699219 0 L 77.808594 0 L 77.808594 34.515625 L 0.699219 34.515625 Z M 0.699219 0 " fill-opacity="1" fill-rule="nonzero"/><path fill="#000000" d="M 0.699219 0 L 77.808594 0 L 77.808594 34.515625 L 0.699219 34.515625 Z M 0.699219 0 " fill-opacity="1" fill-rule="nonzero"/></g><g clip-path="url(#543ae3d90c)"><path fill="#ffffff" d="M 17.902344 25.660156 C 17.902344 22.609375 17.902344 19.601562 17.902344 16.59375 C 17.863281 16.582031 17.824219 16.566406 17.785156 16.550781 C 16.1875 18.558594 14.585938 20.5625 12.929688 22.644531 C 12.339844 21.910156 11.777344 21.207031 11.160156 20.441406 C 8.144531 24.230469 5.152344 27.988281 2.136719 31.777344 C 2 31.667969 1.890625 31.578125 1.757812 31.476562 C 8.179688 23.402344 14.574219 15.363281 21.054688 7.21875 C 21.054688 13.441406 21.054688 19.535156 21.054688 25.660156 C 20.019531 25.660156 19.011719 25.660156 17.902344 25.660156 Z M 17.902344 25.660156 " fill-opacity="1" fill-rule="nonzero"/></g><g clip-path="url(#47ed11ed83)"><path fill="#ffffff" d="M 4.808594 7.300781 C 7.152344 10.246094 9.421875 13.097656 11.742188 16.015625 C 11.917969 15.800781 12.074219 15.621094 12.21875 15.4375 C 15.941406 10.753906 19.660156 6.074219 23.386719 1.394531 C 23.554688 1.191406 23.707031 0.714844 24.117188 1.257812 C 19.441406 7.136719 14.761719 13.023438 10.027344 18.976562 C 9.367188 18.15625 8.738281 17.378906 8.035156 16.511719 C 8.011719 16.738281 7.980469 16.871094 7.980469 17 C 7.980469 18.359375 7.996094 19.714844 7.96875 21.070312 C 7.960938 21.351562 7.855469 21.675781 7.6875 21.894531 C 6.773438 23.089844 5.820312 24.261719 4.808594 25.535156 C 4.808594 19.421875 4.808594 13.429688 4.808594 7.300781 Z M 4.808594 7.300781 " fill-opacity="1" fill-rule="nonzero"/></g><g fill="#ffffff" fill-opacity="1"><g transform="translate(22.868007, 18.914745)"><g><path d="M 0.609375 -1.953125 C 0.609375 -1.566406 0.695312 -1.21875 0.875 -0.90625 C 1.050781 -0.59375 1.304688 -0.347656 1.640625 -0.171875 C 1.972656 0.00390625 2.359375 0.09375 2.796875 0.09375 C 3.242188 0.09375 3.632812 0.00390625 3.96875 -0.171875 C 4.3125 -0.347656 4.578125 -0.59375 4.765625 -0.90625 C 4.953125 -1.21875 5.046875 -1.566406 5.046875 -1.953125 L 5.046875 -5.390625 L 4 -5.390625 L 4 -2.046875 C 4 -1.617188 3.890625 -1.296875 3.671875 -1.078125 C 3.460938 -0.859375 3.175781 -0.75 2.8125 -0.75 C 2.457031 -0.75 2.171875 -0.851562 1.953125 -1.0625 C 1.742188 -1.28125 1.640625 -1.609375 1.640625 -2.046875 L 1.640625 -5.390625 L 0.59375 -5.390625 Z M 0.609375 -1.953125 "/></g></g></g><g fill="#ffffff" fill-opacity="1"><g transform="translate(28.499232, 18.914745)"><g><path d="M 0.375 -0.359375 C 0.550781 -0.242188 0.804688 -0.132812 1.140625 -0.03125 C 1.472656 0.0625 1.75 0.109375 1.96875 0.109375 C 2.394531 0.109375 2.757812 0.046875 3.0625 -0.078125 C 3.363281 -0.210938 3.59375 -0.390625 3.75 -0.609375 C 3.90625 -0.828125 3.984375 -1.082031 3.984375 -1.375 C 3.984375 -1.632812 3.921875 -1.859375 3.796875 -2.046875 C 3.671875 -2.242188 3.515625 -2.410156 3.328125 -2.546875 C 3.148438 -2.679688 2.90625 -2.84375 2.59375 -3.03125 L 2.359375 -3.15625 L 2.109375 -3.296875 C 1.835938 -3.460938 1.640625 -3.59375 1.515625 -3.6875 C 1.398438 -3.789062 1.34375 -3.921875 1.34375 -4.078125 C 1.34375 -4.253906 1.414062 -4.390625 1.5625 -4.484375 C 1.71875 -4.578125 1.914062 -4.625 2.15625 -4.625 C 2.351562 -4.625 2.539062 -4.59375 2.71875 -4.53125 C 2.90625 -4.476562 3.101562 -4.398438 3.3125 -4.296875 L 3.65625 -5.125 C 3.09375 -5.394531 2.585938 -5.53125 2.140625 -5.53125 C 1.753906 -5.53125 1.421875 -5.46875 1.140625 -5.34375 C 0.859375 -5.21875 0.644531 -5.046875 0.5 -4.828125 C 0.351562 -4.609375 0.28125 -4.359375 0.28125 -4.078125 C 0.28125 -3.816406 0.351562 -3.582031 0.5 -3.375 C 0.65625 -3.164062 0.835938 -2.984375 1.046875 -2.828125 C 1.253906 -2.679688 1.535156 -2.5 1.890625 -2.28125 L 2.125 -2.140625 C 2.394531 -1.992188 2.59375 -1.863281 2.71875 -1.75 C 2.851562 -1.644531 2.921875 -1.523438 2.921875 -1.390625 C 2.921875 -1.203125 2.835938 -1.054688 2.671875 -0.953125 C 2.503906 -0.859375 2.265625 -0.8125 1.953125 -0.8125 C 1.742188 -0.8125 1.515625 -0.847656 1.265625 -0.921875 C 1.015625 -1.003906 0.796875 -1.09375 0.609375 -1.1875 Z M 0.375 -0.359375 "/></g></g></g><g fill="#ffffff" fill-opacity="1"><g transform="translate(32.67903, 18.914745)"><g><path d="M 0.078125 -4.59375 L 1.71875 -4.59375 L 1.71875 0 L 2.765625 0 L 2.765625 -4.59375 L 4.609375 -4.59375 L 4.4375 -5.390625 L 0.078125 -5.390625 Z M 0.078125 -4.59375 "/></g></g></g><g fill="#ffffff" fill-opacity="1"><g transform="translate(37.366431, 18.914745)"><g><path d="M 1.109375 0 L 1.59375 -1.265625 L 3.640625 -1.265625 L 4.125 0.078125 L 5.15625 -0.0625 L 3.0625 -5.390625 L 2.1875 -5.390625 L 0.078125 0 Z M 2.59375 -3.984375 L 3.3125 -2.109375 L 1.890625 -2.109375 Z M 2.59375 -3.984375 "/></g></g></g><g fill="#ffffff" fill-opacity="1"><g transform="translate(42.593152, 18.914745)"><g><path d="M 2.296875 -1.875 C 2.691406 -1.875 3.054688 -1.9375 3.390625 -2.0625 C 3.722656 -2.195312 3.988281 -2.398438 4.1875 -2.671875 C 4.394531 -2.941406 4.5 -3.273438 4.5 -3.671875 C 4.5 -4.253906 4.300781 -4.6875 3.90625 -4.96875 C 3.507812 -5.25 2.992188 -5.390625 2.359375 -5.390625 L 0.671875 -5.390625 L 0.671875 0 L 1.703125 0 L 1.703125 -1.875 Z M 2.328125 -4.546875 C 2.679688 -4.546875 2.945312 -4.472656 3.125 -4.328125 C 3.3125 -4.179688 3.40625 -3.941406 3.40625 -3.609375 C 3.382812 -3.316406 3.28125 -3.097656 3.09375 -2.953125 C 2.914062 -2.804688 2.664062 -2.734375 2.34375 -2.734375 L 1.703125 -2.734375 L 1.703125 -4.546875 Z M 2.328125 -4.546875 "/></g></g></g><g fill="#ffffff" fill-opacity="1"><g transform="translate(47.28848, 18.914745)"><g><path d="M 3.828125 -5.390625 L 3.828125 -3.109375 L 1.703125 -3.109375 L 1.703125 -5.4375 L 0.671875 -5.390625 L 0.671875 0 L 1.703125 0 L 1.703125 -2.28125 L 3.828125 -2.28125 L 3.828125 0 L 4.84375 0 L 4.84375 -5.390625 Z M 3.828125 -5.390625 "/></g></g></g><g fill="#ffffff" fill-opacity="1"><g transform="translate(52.808668, 18.914745)"><g><path d="M 1.109375 0 L 1.59375 -1.265625 L 3.640625 -1.265625 L 4.125 0.078125 L 5.15625 -0.0625 L 3.0625 -5.390625 L 2.1875 -5.390625 L 0.078125 0 Z M 2.59375 -3.984375 L 3.3125 -2.109375 L 1.890625 -2.109375 Z M 2.59375 -3.984375 "/></g></g></g><g fill="#ffffff" fill-opacity="1"><g transform="translate(22.41641, 25.775347)"><g><path d="M 2.9375 -5.546875 C 2.414062 -5.535156 1.953125 -5.40625 1.546875 -5.15625 C 1.140625 -4.914062 0.828125 -4.578125 0.609375 -4.140625 C 0.390625 -3.710938 0.28125 -3.226562 0.28125 -2.6875 C 0.28125 -2.15625 0.382812 -1.675781 0.59375 -1.25 C 0.800781 -0.832031 1.101562 -0.5 1.5 -0.25 C 1.90625 -0.0078125 2.382812 0.109375 2.9375 0.109375 C 3.457031 0.0976562 3.914062 -0.0234375 4.3125 -0.265625 C 4.71875 -0.503906 5.03125 -0.835938 5.25 -1.265625 C 5.476562 -1.691406 5.59375 -2.179688 5.59375 -2.734375 C 5.59375 -3.265625 5.488281 -3.742188 5.28125 -4.171875 C 5.070312 -4.597656 4.765625 -4.929688 4.359375 -5.171875 C 3.953125 -5.421875 3.476562 -5.546875 2.9375 -5.546875 Z M 1.359375 -2.6875 C 1.359375 -3.082031 1.429688 -3.429688 1.578125 -3.734375 C 1.722656 -4.035156 1.914062 -4.265625 2.15625 -4.421875 C 2.394531 -4.585938 2.660156 -4.671875 2.953125 -4.671875 C 3.265625 -4.671875 3.539062 -4.585938 3.78125 -4.421875 C 4.019531 -4.253906 4.203125 -4.023438 4.328125 -3.734375 C 4.453125 -3.441406 4.515625 -3.109375 4.515625 -2.734375 C 4.515625 -2.304688 4.441406 -1.941406 4.296875 -1.640625 C 4.160156 -1.335938 3.972656 -1.113281 3.734375 -0.96875 C 3.492188 -0.820312 3.222656 -0.75 2.921875 -0.75 C 2.609375 -0.75 2.332031 -0.832031 2.09375 -1 C 1.851562 -1.164062 1.671875 -1.394531 1.546875 -1.6875 C 1.421875 -1.976562 1.359375 -2.3125 1.359375 -2.6875 Z M 1.359375 -2.6875 "/></g></g></g><g fill="#ffffff" fill-opacity="1"><g transform="translate(28.284715, 25.775347)"><g><path d="M 0.609375 -1.96875 C 0.609375 -1.582031 0.695312 -1.234375 0.875 -0.921875 C 1.050781 -0.609375 1.304688 -0.359375 1.640625 -0.171875 C 1.984375 0.00390625 2.375 0.09375 2.8125 0.09375 C 3.257812 0.09375 3.648438 0.00390625 3.984375 -0.171875 C 4.328125 -0.359375 4.59375 -0.601562 4.78125 -0.90625 C 4.96875 -1.21875 5.0625 -1.570312 5.0625 -1.96875 L 5.0625 -5.421875 L 4.015625 -5.421875 L 4.015625 -2.046875 C 4.015625 -1.628906 3.90625 -1.304688 3.6875 -1.078125 C 3.476562 -0.859375 3.191406 -0.75 2.828125 -0.75 C 2.460938 -0.75 2.171875 -0.859375 1.953125 -1.078125 C 1.742188 -1.296875 1.640625 -1.617188 1.640625 -2.046875 L 1.640625 -5.421875 L 0.59375 -5.421875 Z M 0.609375 -1.96875 "/></g></g></g><g fill="#ffffff" fill-opacity="1"><g transform="translate(33.938043, 25.775347)"><g><path d="M 0.375 -0.359375 C 0.550781 -0.242188 0.804688 -0.132812 1.140625 -0.03125 C 1.472656 0.0625 1.75 0.109375 1.96875 0.109375 C 2.394531 0.109375 2.757812 0.046875 3.0625 -0.078125 C 3.375 -0.210938 3.609375 -0.390625 3.765625 -0.609375 C 3.921875 -0.835938 4 -1.097656 4 -1.390625 C 4 -1.648438 3.9375 -1.875 3.8125 -2.0625 C 3.6875 -2.257812 3.53125 -2.425781 3.34375 -2.5625 C 3.15625 -2.695312 2.90625 -2.851562 2.59375 -3.03125 L 2.359375 -3.171875 L 2.109375 -3.3125 C 1.835938 -3.46875 1.640625 -3.597656 1.515625 -3.703125 C 1.398438 -3.804688 1.34375 -3.9375 1.34375 -4.09375 C 1.34375 -4.269531 1.414062 -4.40625 1.5625 -4.5 C 1.71875 -4.59375 1.914062 -4.640625 2.15625 -4.640625 C 2.363281 -4.640625 2.554688 -4.609375 2.734375 -4.546875 C 2.910156 -4.492188 3.109375 -4.414062 3.328125 -4.3125 L 3.671875 -5.140625 C 3.109375 -5.410156 2.597656 -5.546875 2.140625 -5.546875 C 1.753906 -5.546875 1.421875 -5.484375 1.140625 -5.359375 C 0.859375 -5.234375 0.644531 -5.0625 0.5 -4.84375 C 0.351562 -4.625 0.28125 -4.375 0.28125 -4.09375 C 0.28125 -3.832031 0.351562 -3.597656 0.5 -3.390625 C 0.65625 -3.179688 0.835938 -3 1.046875 -2.84375 C 1.253906 -2.6875 1.535156 -2.503906 1.890625 -2.296875 L 2.140625 -2.15625 C 2.410156 -2 2.609375 -1.867188 2.734375 -1.765625 C 2.867188 -1.660156 2.9375 -1.539062 2.9375 -1.40625 C 2.9375 -1.207031 2.851562 -1.054688 2.6875 -0.953125 C 2.519531 -0.859375 2.273438 -0.8125 1.953125 -0.8125 C 1.753906 -0.8125 1.53125 -0.847656 1.28125 -0.921875 C 1.03125 -1.003906 0.804688 -1.09375 0.609375 -1.1875 Z M 0.375 -0.359375 "/></g></g></g><g fill="#ffffff" fill-opacity="1"><g transform="translate(38.134247, 25.775347)"><g><path d="M 0.078125 -4.609375 L 1.734375 -4.609375 L 1.734375 0 L 2.765625 0 L 2.765625 -4.609375 L 4.625 -4.609375 L 4.46875 -5.421875 L 0.078125 -5.421875 Z M 0.078125 -4.609375 "/></g></g></g><g fill="#ffffff" fill-opacity="1"><g transform="translate(42.840046, 25.775347)"><g><path d="M 1.109375 0 L 1.59375 -1.28125 L 3.65625 -1.28125 L 4.140625 0.078125 L 5.171875 -0.0625 L 3.0625 -5.421875 L 2.1875 -5.421875 L 0.078125 0 Z M 2.609375 -4 L 3.328125 -2.109375 L 1.890625 -2.109375 Z M 2.609375 -4 "/></g></g></g><g fill="#ffffff" fill-opacity="1"><g transform="translate(48.087283, 25.775347)"><g><path d="M 3.84375 -5.421875 L 3.84375 -3.125 L 1.703125 -3.125 L 1.703125 -5.453125 L 0.671875 -5.421875 L 0.671875 0 L 1.703125 0 L 1.703125 -2.296875 L 3.84375 -2.296875 L 3.84375 0 L 4.875 0 L 4.875 -5.421875 Z M 3.84375 -5.421875 "/></g></g></g><g fill="#ffffff" fill-opacity="1"><g transform="translate(53.629138, 25.775347)"><g><path d="M 0.375 -0.359375 C 0.550781 -0.242188 0.804688 -0.132812 1.140625 -0.03125 C 1.472656 0.0625 1.75 0.109375 1.96875 0.109375 C 2.394531 0.109375 2.757812 0.046875 3.0625 -0.078125 C 3.375 -0.210938 3.609375 -0.390625 3.765625 -0.609375 C 3.921875 -0.835938 4 -1.097656 4 -1.390625 C 4 -1.648438 3.9375 -1.875 3.8125 -2.0625 C 3.6875 -2.257812 3.53125 -2.425781 3.34375 -2.5625 C 3.15625 -2.695312 2.90625 -2.851562 2.59375 -3.03125 L 2.359375 -3.171875 L 2.109375 -3.3125 C 1.835938 -3.46875 1.640625 -3.597656 1.515625 -3.703125 C 1.398438 -3.804688 1.34375 -3.9375 1.34375 -4.09375 C 1.34375 -4.269531 1.414062 -4.40625 1.5625 -4.5 C 1.71875 -4.59375 1.914062 -4.640625 2.15625 -4.640625 C 2.363281 -4.640625 2.554688 -4.609375 2.734375 -4.546875 C 2.910156 -4.492188 3.109375 -4.414062 3.328125 -4.3125 L 3.671875 -5.140625 C 3.109375 -5.410156 2.597656 -5.546875 2.140625 -5.546875 C 1.753906 -5.546875 1.421875 -5.484375 1.140625 -5.359375 C 0.859375 -5.234375 0.644531 -5.0625 0.5 -4.84375 C 0.351562 -4.625 0.28125 -4.375 0.28125 -4.09375 C 0.28125 -3.832031 0.351562 -3.597656 0.5 -3.390625 C 0.65625 -3.179688 0.835938 -3 1.046875 -2.84375 C 1.253906 -2.6875 1.535156 -2.503906 1.890625 -2.296875 L 2.140625 -2.15625 C 2.410156 -2 2.609375 -1.867188 2.734375 -1.765625 C 2.867188 -1.660156 2.9375 -1.539062 2.9375 -1.40625 C 2.9375 -1.207031 2.851562 -1.054688 2.6875 -0.953125 C 2.519531 -0.859375 2.273438 -0.8125 1.953125 -0.8125 C 1.753906 -0.8125 1.53125 -0.847656 1.28125 -0.921875 C 1.03125 -1.003906 0.804688 -1.09375 0.609375 -1.1875 Z M 0.375 -0.359375 "/></g></g></g><g fill="#ffffff" fill-opacity="1"><g transform="translate(57.825342, 25.775347)"><g><path d="M 1.109375 0 L 1.59375 -1.28125 L 3.65625 -1.28125 L 4.140625 0.078125 L 5.171875 -0.0625 L 3.0625 -5.421875 L 2.1875 -5.421875 L 0.078125 0 Z M 2.609375 -4 L 3.328125 -2.109375 L 1.890625 -2.109375 Z M 2.609375 -4 "/></g></g></g><g fill="#ffffff" fill-opacity="1"><g transform="translate(63.072579, 25.775347)"><g><path d="M 4.21875 0 L 5.25 0 L 5.25 -5.421875 L 4.21875 -5.421875 L 4.21875 -1.796875 L 1.703125 -5.421875 L 0.671875 -5.421875 L 0.671875 0 L 1.703125 0 L 1.703125 -3.625 Z M 4.21875 0 "/></g></g></g><g fill="#ffffff" fill-opacity="1"><g transform="translate(68.99663, 25.775347)"><g><path d="M 1.703125 -0.8125 L 1.703125 -2.328125 L 3.640625 -2.328125 L 3.46875 -3.140625 L 1.703125 -3.140625 L 1.703125 -4.609375 L 4.078125 -4.609375 L 3.90625 -5.421875 L 0.671875 -5.421875 L 0.671875 0 L 4.46875 0 L 4.296875 -0.8125 Z M 1.703125 -0.8125 "/></g></g></g></svg>