<?xml version="1.0" encoding="UTF-8"?>
<svg xmlns="http://www.w3.org/2000/svg" xmlns:xlink="http://www.w3.org/1999/xlink" width="85px" height="27px" viewBox="0 0 85 27" version="1.1">
<g id="surface1">
<path style=" stroke:none;fill-rule:nonzero;fill:rgb(100%,100%,100%);fill-opacity:1;" d="M 20.515625 12.121094 C 20.824219 12.117188 21.132812 12.113281 21.441406 12.109375 C 21.589844 12.109375 21.589844 12.109375 21.746094 12.105469 C 22.4375 12.105469 22.4375 12.105469 22.683594 12.15625 C 22.902344 12.238281 23.007812 12.316406 23.035156 12.421875 C 23.089844 12.421875 23.148438 12.421875 23.203125 12.421875 C 23.25 12.445312 23.292969 12.46875 23.335938 12.496094 C 23.632812 12.660156 23.929688 12.824219 24.273438 12.984375 C 24.410156 13.046875 24.535156 13.113281 24.660156 13.183594 C 24.917969 13.324219 24.917969 13.324219 25.246094 13.445312 C 25.453125 13.460938 25.453125 13.460938 25.671875 13.445312 C 25.835938 13.390625 25.835938 13.390625 25.960938 13.3125 C 26.011719 13.289062 26.0625 13.261719 26.117188 13.230469 C 26.164062 13.203125 26.214844 13.175781 26.265625 13.148438 C 26.351562 13.105469 26.433594 13.058594 26.519531 13.015625 C 26.5625 12.992188 26.601562 12.96875 26.644531 12.945312 C 26.78125 12.875 26.925781 12.804688 27.066406 12.734375 C 27.332031 12.601562 27.582031 12.46875 27.824219 12.332031 C 27.972656 12.253906 28.101562 12.1875 28.304688 12.121094 C 28.574219 12.105469 28.574219 12.105469 28.890625 12.105469 C 28.945312 12.105469 29 12.105469 29.058594 12.105469 C 29.175781 12.105469 29.292969 12.109375 29.410156 12.109375 C 29.589844 12.109375 29.769531 12.109375 29.949219 12.109375 C 30.589844 12.109375 30.589844 12.109375 30.855469 12.121094 C 31.042969 12.210938 31.046875 12.238281 31.046875 12.34375 C 31.046875 12.375 31.046875 12.402344 31.050781 12.433594 C 31.046875 12.464844 31.046875 12.496094 31.046875 12.527344 C 31.046875 12.5625 31.050781 12.597656 31.050781 12.632812 C 31.050781 12.722656 31.050781 12.816406 31.050781 12.90625 C 31.050781 12.984375 31.050781 13.0625 31.050781 13.136719 C 31.050781 13.320312 31.050781 13.5 31.050781 13.683594 C 31.050781 13.871094 31.050781 14.058594 31.054688 14.242188 C 31.054688 14.40625 31.054688 14.566406 31.054688 14.726562 C 31.054688 14.820312 31.054688 14.917969 31.058594 15.015625 C 31.058594 15.121094 31.058594 15.226562 31.058594 15.335938 C 31.058594 15.367188 31.058594 15.398438 31.058594 15.429688 C 31.058594 15.460938 31.058594 15.488281 31.058594 15.519531 C 31.058594 15.542969 31.058594 15.570312 31.058594 15.597656 C 31.019531 15.671875 30.960938 15.695312 30.769531 15.742188 C 30.566406 15.75 30.566406 15.75 30.328125 15.75 C 30.238281 15.75 30.152344 15.753906 30.066406 15.753906 C 29.976562 15.75 29.886719 15.75 29.792969 15.75 C 29.703125 15.75 29.613281 15.75 29.519531 15.753906 C 29.390625 15.75 29.390625 15.75 29.257812 15.75 C 29.140625 15.75 29.140625 15.75 29.019531 15.75 C 28.769531 15.738281 28.710938 15.722656 28.558594 15.660156 C 28.527344 15.585938 28.527344 15.585938 28.527344 15.492188 C 28.527344 15.457031 28.527344 15.421875 28.523438 15.386719 C 28.523438 15.367188 28.523438 15.347656 28.523438 15.328125 C 28.527344 15.273438 28.523438 15.214844 28.523438 15.15625 C 28.519531 15.03125 28.519531 14.90625 28.515625 14.785156 C 28.515625 14.640625 28.515625 14.496094 28.511719 14.355469 C 28.507812 14.296875 28.511719 14.238281 28.511719 14.183594 C 28.507812 14.148438 28.507812 14.113281 28.507812 14.078125 C 28.507812 14.046875 28.507812 14.015625 28.507812 13.984375 C 28.472656 13.898438 28.402344 13.859375 28.21875 13.796875 C 28.015625 13.800781 28.015625 13.800781 27.796875 13.824219 C 27.636719 13.878906 27.636719 13.878906 27.511719 13.953125 C 27.460938 13.980469 27.410156 14.007812 27.359375 14.035156 C 27.304688 14.0625 27.253906 14.09375 27.199219 14.121094 C 27.089844 14.175781 26.980469 14.230469 26.871094 14.28125 C 26.816406 14.308594 26.761719 14.335938 26.707031 14.363281 C 26.652344 14.390625 26.597656 14.417969 26.542969 14.445312 C 26.484375 14.472656 26.429688 14.5 26.371094 14.527344 C 26.316406 14.554688 26.261719 14.582031 26.207031 14.609375 C 26.160156 14.632812 26.109375 14.65625 26.0625 14.679688 C 25.941406 14.734375 25.832031 14.78125 25.671875 14.824219 C 25.378906 14.835938 25.378906 14.835938 25.074219 14.824219 C 24.804688 14.730469 24.609375 14.625 24.40625 14.515625 C 24.175781 14.398438 23.933594 14.285156 23.664062 14.171875 C 23.488281 14.09375 23.351562 14.011719 23.210938 13.929688 C 23.121094 13.875 23.121094 13.875 22.949219 13.824219 C 22.734375 13.816406 22.734375 13.816406 22.523438 13.824219 C 22.371094 13.875 22.429688 13.949219 22.429688 14.015625 C 22.425781 14.050781 22.425781 14.085938 22.425781 14.121094 C 22.425781 14.152344 22.425781 14.152344 22.425781 14.179688 C 22.425781 14.238281 22.421875 14.300781 22.421875 14.359375 C 22.417969 14.527344 22.414062 14.695312 22.414062 14.863281 C 22.410156 14.96875 22.410156 15.070312 22.40625 15.175781 C 22.40625 15.214844 22.402344 15.253906 22.402344 15.292969 C 22.402344 15.347656 22.402344 15.402344 22.398438 15.457031 C 22.398438 15.488281 22.398438 15.519531 22.398438 15.550781 C 22.347656 15.648438 22.257812 15.683594 22.015625 15.742188 C 21.800781 15.753906 21.800781 15.753906 21.5625 15.753906 C 21.476562 15.753906 21.390625 15.753906 21.300781 15.753906 C 21.214844 15.753906 21.125 15.753906 21.03125 15.753906 C 20.941406 15.753906 20.851562 15.753906 20.761719 15.753906 C 20.105469 15.75 20.105469 15.75 19.90625 15.703125 C 19.804688 15.660156 19.804688 15.660156 19.804688 15.578125 C 20 15.570312 20.199219 15.5625 20.398438 15.550781 C 20.398438 15.535156 20.398438 15.515625 20.398438 15.496094 C 20.308594 15.496094 20.308594 15.496094 20.214844 15.496094 C 19.9375 15.492188 19.660156 15.488281 19.386719 15.484375 C 19.289062 15.484375 19.191406 15.484375 19.09375 15.484375 C 19 15.480469 18.910156 15.480469 18.816406 15.480469 C 18.730469 15.480469 18.644531 15.476562 18.558594 15.476562 C 18.359375 15.472656 18.359375 15.472656 18.273438 15.445312 C 18.257812 15.363281 18.257812 15.363281 18.273438 15.28125 C 18.519531 15.203125 18.699219 15.21875 19.039062 15.21875 C 19.097656 15.214844 19.15625 15.214844 19.214844 15.214844 C 19.402344 15.214844 19.585938 15.210938 19.773438 15.210938 C 19.898438 15.210938 20.027344 15.210938 20.152344 15.207031 C 20.460938 15.207031 20.769531 15.203125 21.078125 15.199219 C 21.109375 15.183594 21.136719 15.164062 21.164062 15.148438 C 21.117188 15.144531 21.066406 15.144531 21.019531 15.144531 C 20.800781 15.140625 20.582031 15.136719 20.363281 15.136719 C 20.285156 15.132812 20.210938 15.132812 20.132812 15.132812 C 20.058594 15.128906 19.988281 15.128906 19.910156 15.128906 C 19.84375 15.128906 19.777344 15.125 19.707031 15.125 C 19.550781 15.121094 19.550781 15.121094 19.464844 15.09375 C 19.488281 15.03125 19.519531 14.96875 19.550781 14.902344 C 19.621094 14.902344 19.691406 14.902344 19.765625 14.902344 C 19.859375 14.898438 19.953125 14.898438 20.050781 14.894531 C 20.140625 14.894531 20.234375 14.890625 20.332031 14.890625 C 20.449219 14.882812 20.449219 14.882812 20.570312 14.878906 C 20.652344 14.835938 20.652344 14.835938 20.738281 14.796875 C 20.691406 14.796875 20.644531 14.792969 20.59375 14.792969 C 20.375 14.789062 20.15625 14.789062 19.9375 14.785156 C 19.863281 14.78125 19.785156 14.78125 19.707031 14.78125 C 19.632812 14.78125 19.5625 14.777344 19.488281 14.777344 C 19.417969 14.777344 19.351562 14.777344 19.28125 14.773438 C 19.125 14.769531 19.125 14.769531 19.039062 14.742188 C 19.035156 14.6875 19.035156 14.632812 19.039062 14.578125 C 19.316406 14.527344 19.519531 14.519531 19.839844 14.519531 C 19.929688 14.519531 20.015625 14.519531 20.105469 14.519531 C 20.242188 14.523438 20.242188 14.523438 20.378906 14.523438 C 20.46875 14.523438 20.5625 14.523438 20.65625 14.523438 C 20.882812 14.523438 21.109375 14.523438 21.335938 14.527344 C 21.308594 14.5 21.277344 14.472656 21.25 14.445312 C 21.128906 14.445312 21.128906 14.445312 21 14.441406 C 20.699219 14.441406 20.394531 14.4375 20.09375 14.433594 C 19.960938 14.433594 19.828125 14.433594 19.699219 14.429688 C 19.511719 14.429688 19.320312 14.429688 19.132812 14.425781 C 19.074219 14.425781 19.015625 14.425781 18.953125 14.425781 C 18.539062 14.421875 18.539062 14.421875 18.445312 14.390625 C 18.433594 14.308594 18.433594 14.308594 18.445312 14.230469 C 18.632812 14.167969 19.132812 14.191406 19.402344 14.1875 C 19.566406 14.1875 19.726562 14.179688 19.890625 14.175781 C 19.917969 14.15625 19.945312 14.140625 19.976562 14.121094 C 19.730469 14.082031 19.480469 14.082031 19.210938 14.074219 C 19.039062 14.066406 19.039062 14.066406 18.953125 14.039062 C 18.9375 13.972656 18.9375 13.972656 18.953125 13.90625 C 19.175781 13.835938 19.296875 13.839844 19.601562 13.835938 C 19.6875 13.832031 19.773438 13.832031 19.863281 13.828125 C 19.925781 13.828125 19.992188 13.824219 20.058594 13.824219 C 20.058594 13.804688 20.058594 13.789062 20.058594 13.769531 C 19.988281 13.769531 19.917969 13.765625 19.84375 13.765625 C 19.75 13.765625 19.65625 13.761719 19.5625 13.761719 C 19.46875 13.757812 19.375 13.757812 19.28125 13.753906 C 19.039062 13.742188 19.039062 13.742188 18.871094 13.6875 C 18.917969 13.539062 18.917969 13.539062 19.039062 13.5 C 19.179688 13.496094 19.316406 13.492188 19.457031 13.492188 C 19.542969 13.492188 19.625 13.488281 19.710938 13.488281 C 19.800781 13.488281 19.890625 13.484375 19.980469 13.484375 C 20.070312 13.484375 20.15625 13.484375 20.25 13.480469 C 20.46875 13.476562 20.691406 13.476562 20.910156 13.472656 C 20.882812 13.457031 20.855469 13.4375 20.824219 13.417969 C 20.71875 13.417969 20.71875 13.417969 20.609375 13.417969 C 20.34375 13.414062 20.078125 13.410156 19.8125 13.410156 C 19.699219 13.40625 19.582031 13.40625 19.46875 13.40625 C 19.304688 13.402344 19.140625 13.402344 18.972656 13.402344 C 18.875 13.398438 18.777344 13.398438 18.671875 13.398438 C 18.445312 13.390625 18.445312 13.390625 18.359375 13.363281 C 18.34375 13.285156 18.34375 13.285156 18.359375 13.203125 C 18.53125 13.148438 18.53125 13.148438 18.746094 13.144531 C 18.832031 13.144531 18.921875 13.144531 19.011719 13.144531 C 19.105469 13.144531 19.203125 13.144531 19.300781 13.144531 C 19.398438 13.144531 19.5 13.144531 19.601562 13.144531 C 19.703125 13.144531 19.804688 13.144531 19.90625 13.144531 C 20.15625 13.148438 20.40625 13.148438 20.65625 13.148438 C 20.625 13.132812 20.597656 13.113281 20.570312 13.09375 C 20.410156 13.09375 20.410156 13.09375 20.246094 13.089844 C 20.101562 13.089844 19.960938 13.085938 19.820312 13.085938 C 19.714844 13.082031 19.714844 13.082031 19.605469 13.082031 C 19.539062 13.082031 19.46875 13.082031 19.398438 13.078125 C 19.335938 13.078125 19.273438 13.078125 19.210938 13.078125 C 19.039062 13.066406 19.039062 13.066406 18.785156 13.015625 C 18.757812 12.945312 18.757812 12.945312 18.785156 12.878906 C 19.011719 12.808594 19.136719 12.816406 19.453125 12.8125 C 19.554688 12.8125 19.652344 12.8125 19.753906 12.8125 C 19.859375 12.808594 19.964844 12.808594 20.070312 12.808594 C 20.175781 12.808594 20.28125 12.804688 20.386719 12.804688 C 20.648438 12.800781 20.90625 12.800781 21.164062 12.796875 C 21.191406 12.78125 21.222656 12.761719 21.25 12.742188 C 21.183594 12.742188 21.117188 12.742188 21.050781 12.742188 C 20.75 12.742188 20.453125 12.738281 20.15625 12.734375 C 20.050781 12.734375 19.949219 12.734375 19.839844 12.734375 C 19.742188 12.734375 19.640625 12.730469 19.539062 12.730469 C 19.402344 12.730469 19.402344 12.730469 19.261719 12.730469 C 19.1875 12.726562 19.117188 12.722656 19.039062 12.71875 C 18.984375 12.691406 18.929688 12.664062 18.871094 12.636719 C 18.8125 12.652344 18.757812 12.671875 18.699219 12.691406 C 18.46875 12.695312 18.25 12.699219 18.019531 12.695312 C 17.957031 12.695312 17.894531 12.695312 17.828125 12.699219 C 17.363281 12.695312 17.363281 12.695312 17.171875 12.636719 C 17.148438 12.570312 17.148438 12.570312 17.171875 12.5 C 17.382812 12.433594 17.507812 12.441406 17.796875 12.441406 C 17.855469 12.441406 17.914062 12.441406 17.972656 12.441406 C 18.03125 12.441406 18.089844 12.441406 18.148438 12.441406 C 18.464844 12.441406 18.601562 12.445312 18.871094 12.5 C 18.871094 12.519531 18.871094 12.535156 18.871094 12.554688 C 18.925781 12.554688 18.980469 12.554688 19.039062 12.554688 C 19.039062 12.539062 19.039062 12.519531 19.039062 12.5 C 19.292969 12.460938 19.535156 12.464844 19.816406 12.457031 C 19.925781 12.457031 20.035156 12.453125 20.144531 12.453125 C 20.230469 12.449219 20.3125 12.449219 20.398438 12.445312 C 20.398438 12.4375 20.398438 12.429688 20.398438 12.421875 C 20.292969 12.417969 20.183594 12.417969 20.074219 12.414062 C 19.933594 12.414062 19.792969 12.410156 19.652344 12.410156 C 19.542969 12.410156 19.542969 12.410156 19.4375 12.40625 C 19.367188 12.40625 19.300781 12.40625 19.230469 12.402344 C 19.167969 12.402344 19.105469 12.402344 19.039062 12.402344 C 18.871094 12.394531 18.871094 12.394531 18.613281 12.339844 C 18.589844 12.273438 18.589844 12.273438 18.613281 12.203125 C 19.003906 12.082031 19.976562 12.125 20.515625 12.121094 Z M 20.515625 12.121094 "/>
<path style=" stroke:none;fill-rule:nonzero;fill:rgb(100%,100%,100%);fill-opacity:1;" d="M 48.023438 12.878906 C 48.332031 12.878906 48.640625 12.878906 48.960938 12.878906 C 48.988281 12.996094 49.015625 13.109375 49.046875 13.230469 C 49.074219 13.113281 49.101562 13 49.128906 12.878906 C 49.464844 12.878906 49.804688 12.878906 50.148438 12.878906 C 50.148438 13.183594 50.148438 13.484375 50.148438 13.796875 C 49.8125 13.796875 49.476562 13.796875 49.128906 13.796875 C 49.128906 13.679688 49.128906 13.566406 49.128906 13.445312 C 49.074219 13.445312 49.019531 13.445312 48.960938 13.445312 C 48.960938 13.5625 48.960938 13.675781 48.960938 13.796875 C 48.652344 13.796875 48.34375 13.796875 48.023438 13.796875 C 48.023438 13.492188 48.023438 13.191406 48.023438 12.878906 Z M 48.023438 12.878906 "/>
<path style=" stroke:none;fill-rule:nonzero;fill:rgb(100%,100%,100%);fill-opacity:1;" d="M 33.660156 12.878906 C 34.109375 12.878906 34.558594 12.878906 35.019531 12.878906 C 35.019531 12.898438 35.019531 12.914062 35.019531 12.933594 C 35.160156 12.949219 35.300781 12.96875 35.445312 12.988281 C 35.445312 13.210938 35.445312 13.433594 35.445312 13.660156 C 35.359375 13.671875 35.277344 13.679688 35.191406 13.6875 C 35.191406 13.707031 35.191406 13.726562 35.191406 13.742188 C 35.132812 13.742188 35.078125 13.742188 35.019531 13.742188 C 35.019531 13.761719 35.019531 13.777344 35.019531 13.796875 C 34.570312 13.796875 34.121094 13.796875 33.660156 13.796875 C 33.660156 13.777344 33.660156 13.761719 33.660156 13.742188 C 33.605469 13.742188 33.546875 13.742188 33.488281 13.742188 C 33.488281 13.726562 33.488281 13.707031 33.488281 13.6875 C 33.40625 13.6875 33.320312 13.6875 33.234375 13.6875 C 33.234375 13.457031 33.234375 13.226562 33.234375 12.988281 C 33.375 12.96875 33.515625 12.953125 33.660156 12.933594 C 33.660156 12.914062 33.660156 12.898438 33.660156 12.878906 Z M 34.253906 13.015625 C 34.253906 13.226562 34.253906 13.441406 34.253906 13.660156 C 34.3125 13.660156 34.367188 13.660156 34.425781 13.660156 C 34.425781 13.457031 34.425781 13.253906 34.425781 13.039062 C 34.367188 13.03125 34.3125 13.023438 34.253906 13.015625 Z M 34.253906 13.015625 "/>
<path style=" stroke:none;fill-rule:nonzero;fill:rgb(100%,100%,100%);fill-opacity:1;" d="M 36.210938 12.878906 C 36.546875 12.878906 36.882812 12.878906 37.230469 12.878906 C 37.230469 13.136719 37.230469 13.394531 37.230469 13.660156 C 37.285156 13.660156 37.34375 13.660156 37.398438 13.660156 C 37.398438 13.402344 37.398438 13.144531 37.398438 12.878906 C 37.707031 12.878906 38.015625 12.878906 38.335938 12.878906 C 38.335938 13.144531 38.335938 13.414062 38.335938 13.6875 C 38.277344 13.6875 38.222656 13.6875 38.164062 13.6875 C 38.164062 13.707031 38.164062 13.726562 38.164062 13.742188 C 38.109375 13.742188 38.054688 13.742188 37.996094 13.742188 C 37.996094 13.761719 37.996094 13.777344 37.996094 13.796875 C 37.546875 13.796875 37.097656 13.796875 36.636719 13.796875 C 36.636719 13.777344 36.636719 13.761719 36.636719 13.742188 C 36.578125 13.742188 36.523438 13.742188 36.464844 13.742188 C 36.464844 13.726562 36.464844 13.707031 36.464844 13.6875 C 36.378906 13.6875 36.296875 13.6875 36.210938 13.6875 C 36.210938 13.421875 36.210938 13.15625 36.210938 12.878906 Z M 36.210938 12.878906 "/>
<path style=" stroke:none;fill-rule:nonzero;fill:rgb(100%,100%,100%);fill-opacity:1;" d="M 54.570312 12.878906 C 54.992188 12.878906 55.410156 12.878906 55.84375 12.878906 C 55.972656 12.957031 55.941406 13.039062 55.9375 13.128906 C 55.9375 13.144531 55.9375 13.164062 55.9375 13.183594 C 55.9375 13.246094 55.9375 13.308594 55.933594 13.367188 C 55.933594 13.410156 55.933594 13.449219 55.933594 13.492188 C 55.933594 13.59375 55.933594 13.695312 55.929688 13.796875 C 55.621094 13.796875 55.3125 13.796875 54.996094 13.796875 C 54.96875 13.707031 54.9375 13.617188 54.910156 13.527344 C 54.882812 13.617188 54.855469 13.707031 54.824219 13.796875 C 54.515625 13.796875 54.207031 13.796875 53.890625 13.796875 C 53.875 13.683594 53.863281 13.570312 53.851562 13.457031 C 53.847656 13.425781 53.84375 13.390625 53.835938 13.359375 C 53.824219 13.125 53.824219 13.125 54.023438 13.039062 C 54.171875 13 54.320312 12.964844 54.484375 12.933594 C 54.511719 12.914062 54.542969 12.898438 54.570312 12.878906 Z M 54.910156 13.015625 C 54.800781 13.042969 54.800781 13.042969 54.816406 13.109375 C 54.816406 13.136719 54.820312 13.164062 54.820312 13.191406 C 54.820312 13.21875 54.820312 13.246094 54.820312 13.273438 C 54.824219 13.296875 54.824219 13.316406 54.824219 13.339844 C 54.882812 13.328125 54.9375 13.320312 54.996094 13.3125 C 54.996094 13.214844 54.996094 13.113281 54.996094 13.015625 C 54.96875 13.015625 54.9375 13.015625 54.910156 13.015625 Z M 54.910156 13.015625 "/>
<path style=" stroke:none;fill-rule:nonzero;fill:rgb(100%,100%,100%);fill-opacity:1;" d="M 56.863281 12.878906 C 56.976562 12.878906 57.089844 12.878906 57.203125 12.878906 C 57.203125 12.898438 57.203125 12.914062 57.203125 12.933594 C 57.300781 12.941406 57.300781 12.941406 57.402344 12.953125 C 57.648438 12.988281 57.742188 13.023438 57.886719 13.09375 C 57.914062 13.023438 57.941406 12.953125 57.96875 12.878906 C 58.277344 12.878906 58.585938 12.878906 58.90625 12.878906 C 58.90625 13.183594 58.90625 13.484375 58.90625 13.796875 C 58.597656 13.796875 58.289062 13.796875 57.96875 13.796875 C 57.96875 13.636719 57.96875 13.476562 57.96875 13.3125 C 57.914062 13.3125 57.859375 13.3125 57.800781 13.3125 C 57.773438 13.472656 57.742188 13.632812 57.714844 13.796875 C 57.433594 13.796875 57.152344 13.796875 56.863281 13.796875 C 56.863281 13.492188 56.863281 13.191406 56.863281 12.878906 Z M 56.863281 12.878906 "/>
<path style=" stroke:none;fill-rule:nonzero;fill:rgb(100%,100%,100%);fill-opacity:1;" d="M 45.730469 12.878906 C 46.152344 12.878906 46.570312 12.878906 47.003906 12.878906 C 47.003906 12.898438 47.003906 12.914062 47.003906 12.933594 C 47.0625 12.933594 47.117188 12.933594 47.175781 12.933594 C 47.175781 13.21875 47.175781 13.503906 47.175781 13.796875 C 46.867188 13.796875 46.558594 13.796875 46.238281 13.796875 C 46.210938 13.707031 46.183594 13.617188 46.15625 13.527344 C 46.097656 13.527344 46.042969 13.527344 45.984375 13.527344 C 45.984375 13.617188 45.984375 13.707031 45.984375 13.796875 C 45.703125 13.796875 45.425781 13.796875 45.136719 13.796875 C 45.136719 13.566406 45.136719 13.332031 45.136719 13.09375 C 45.246094 13.078125 45.359375 13.058594 45.476562 13.039062 C 45.476562 13.023438 45.476562 13.003906 45.476562 12.988281 C 45.53125 12.976562 45.585938 12.96875 45.644531 12.960938 C 45.671875 12.933594 45.699219 12.90625 45.730469 12.878906 Z M 45.984375 13.039062 C 45.984375 13.140625 45.984375 13.238281 45.984375 13.339844 C 46.070312 13.328125 46.152344 13.320312 46.238281 13.3125 C 46.238281 13.214844 46.238281 13.113281 46.238281 13.015625 C 46.136719 13.011719 46.136719 13.011719 45.984375 13.039062 Z M 45.984375 13.039062 "/>
<path style=" stroke:none;fill-rule:nonzero;fill:rgb(100%,100%,100%);fill-opacity:1;" d="M 47.351562 14.035156 C 47.460938 14.035156 47.570312 14.035156 47.679688 14.035156 C 47.789062 14.035156 47.894531 14.035156 48.007812 14.035156 C 48.28125 14.039062 48.28125 14.039062 48.449219 14.066406 C 48.449219 14.335938 48.449219 14.601562 48.449219 14.878906 C 48.140625 14.878906 47.832031 14.878906 47.515625 14.878906 C 47.488281 14.796875 47.457031 14.714844 47.429688 14.632812 C 47.402344 14.714844 47.375 14.792969 47.34375 14.878906 C 47.035156 14.878906 46.726562 14.878906 46.410156 14.878906 C 46.410156 14.664062 46.410156 14.449219 46.410156 14.230469 C 46.496094 14.230469 46.578125 14.230469 46.664062 14.230469 C 46.664062 14.210938 46.664062 14.195312 46.664062 14.175781 C 46.722656 14.175781 46.777344 14.175781 46.835938 14.175781 C 46.859375 14.15625 46.886719 14.140625 46.914062 14.121094 C 47.046875 14.039062 47.046875 14.039062 47.351562 14.035156 Z M 47.34375 14.175781 C 47.34375 14.273438 47.34375 14.371094 47.34375 14.472656 C 47.53125 14.421875 47.53125 14.421875 47.53125 14.359375 C 47.53125 14.335938 47.527344 14.316406 47.527344 14.292969 C 47.523438 14.269531 47.523438 14.25 47.519531 14.226562 C 47.519531 14.210938 47.515625 14.191406 47.515625 14.175781 C 47.457031 14.175781 47.402344 14.175781 47.34375 14.175781 Z M 47.34375 14.175781 "/>
<path style=" stroke:none;fill-rule:nonzero;fill:rgb(100%,100%,100%);fill-opacity:1;" d="M 55.164062 14.039062 C 55.445312 14.039062 55.726562 14.039062 56.015625 14.039062 C 56.015625 14.148438 56.015625 14.253906 56.015625 14.363281 C 56.070312 14.363281 56.128906 14.363281 56.183594 14.363281 C 56.183594 14.257812 56.183594 14.148438 56.183594 14.039062 C 56.492188 14.039062 56.800781 14.039062 57.121094 14.039062 C 57.121094 14.316406 57.121094 14.59375 57.121094 14.878906 C 56.8125 14.878906 56.503906 14.878906 56.183594 14.878906 C 56.183594 14.769531 56.183594 14.664062 56.183594 14.554688 C 56.128906 14.554688 56.074219 14.554688 56.015625 14.554688 C 56.015625 14.660156 56.015625 14.765625 56.015625 14.878906 C 55.734375 14.878906 55.453125 14.878906 55.164062 14.878906 C 55.164062 14.601562 55.164062 14.324219 55.164062 14.039062 Z M 55.164062 14.039062 "/>
<path style=" stroke:none;fill-rule:nonzero;fill:rgb(100%,100%,100%);fill-opacity:1;" d="M 60.816406 14.035156 C 60.964844 14.035156 60.964844 14.035156 61.117188 14.035156 C 61.371094 14.039062 61.371094 14.039062 61.539062 14.066406 C 61.539062 14.335938 61.539062 14.601562 61.539062 14.878906 C 60.894531 14.878906 60.25 14.878906 59.585938 14.878906 C 59.574219 14.769531 59.570312 14.664062 59.5625 14.558594 C 59.5625 14.53125 59.558594 14.5 59.554688 14.46875 C 59.554688 14.441406 59.554688 14.410156 59.550781 14.382812 C 59.550781 14.355469 59.546875 14.328125 59.546875 14.300781 C 59.59375 14.210938 59.699219 14.175781 59.925781 14.121094 C 59.980469 14.121094 60.039062 14.121094 60.09375 14.121094 C 60.09375 14.101562 60.09375 14.085938 60.09375 14.066406 C 60.335938 14.027344 60.546875 14.035156 60.816406 14.035156 Z M 60.519531 14.175781 C 60.519531 14.253906 60.519531 14.335938 60.519531 14.417969 C 60.546875 14.417969 60.574219 14.417969 60.605469 14.417969 C 60.605469 14.335938 60.605469 14.257812 60.605469 14.175781 C 60.578125 14.175781 60.550781 14.175781 60.519531 14.175781 Z M 60.519531 14.175781 "/>
<path style=" stroke:none;fill-rule:nonzero;fill:rgb(100%,100%,100%);fill-opacity:1;" d="M 59.839844 12.878906 C 60.457031 12.878906 61.074219 12.878906 61.710938 12.878906 C 61.710938 12.96875 61.710938 13.058594 61.710938 13.148438 C 61.625 13.175781 61.625 13.175781 61.320312 13.175781 C 61.226562 13.175781 61.128906 13.175781 61.03125 13.175781 C 61.03125 13.15625 61.03125 13.140625 61.03125 13.121094 C 60.945312 13.121094 60.863281 13.121094 60.773438 13.121094 C 60.773438 13.167969 60.773438 13.210938 60.773438 13.257812 C 61 13.257812 61.222656 13.257812 61.453125 13.257812 C 61.453125 13.308594 61.453125 13.363281 61.453125 13.417969 C 61.230469 13.417969 61.007812 13.417969 60.773438 13.417969 C 60.773438 13.464844 60.773438 13.507812 60.773438 13.554688 C 60.859375 13.554688 60.941406 13.554688 61.03125 13.554688 C 61.03125 13.535156 61.03125 13.519531 61.03125 13.5 C 61.253906 13.5 61.480469 13.5 61.710938 13.5 C 61.710938 13.597656 61.710938 13.695312 61.710938 13.796875 C 61.09375 13.796875 60.476562 13.796875 59.839844 13.796875 C 59.839844 13.492188 59.839844 13.191406 59.839844 12.878906 Z M 59.839844 12.878906 "/>
<path style=" stroke:none;fill-rule:nonzero;fill:rgb(100%,100%,100%);fill-opacity:1;" d="M 51.339844 12.878906 C 51.761719 12.878906 52.179688 12.878906 52.613281 12.878906 C 52.613281 12.898438 52.613281 12.914062 52.613281 12.933594 C 52.753906 12.933594 52.894531 12.933594 53.039062 12.933594 C 53.046875 13.097656 53.046875 13.097656 53.039062 13.148438 C 52.953125 13.175781 52.953125 13.175781 52.667969 13.179688 C 52.359375 13.175781 52.359375 13.175781 52.105469 13.121094 C 52.078125 13.09375 52.050781 13.070312 52.019531 13.039062 C 52.015625 13.132812 52.015625 13.199219 52.105469 13.285156 C 52.195312 13.28125 52.285156 13.28125 52.375 13.277344 C 52.699219 13.285156 52.699219 13.285156 52.949219 13.320312 C 53.214844 13.429688 53.160156 13.53125 53.125 13.660156 C 53.039062 13.671875 52.957031 13.679688 52.871094 13.6875 C 52.871094 13.707031 52.871094 13.726562 52.871094 13.742188 C 52.8125 13.742188 52.757812 13.742188 52.699219 13.742188 C 52.699219 13.761719 52.699219 13.777344 52.699219 13.796875 C 52.167969 13.796875 51.632812 13.796875 51.085938 13.796875 C 51.085938 13.777344 51.085938 13.761719 51.085938 13.742188 C 51.027344 13.742188 50.972656 13.742188 50.914062 13.742188 C 50.914062 13.664062 50.914062 13.582031 50.914062 13.5 C 51.222656 13.5 51.53125 13.5 51.851562 13.5 C 51.878906 13.554688 51.90625 13.605469 51.933594 13.660156 C 51.992188 13.660156 52.046875 13.660156 52.105469 13.660156 C 52.09375 13.628906 52.082031 13.59375 52.066406 13.558594 C 52.0625 13.539062 52.054688 13.519531 52.046875 13.5 C 52.023438 13.441406 52.023438 13.441406 51.933594 13.363281 C 51.738281 13.363281 51.542969 13.363281 51.339844 13.363281 C 51.339844 13.347656 51.339844 13.328125 51.339844 13.3125 C 51.253906 13.3125 51.171875 13.3125 51.085938 13.3125 C 51.085938 13.292969 51.085938 13.273438 51.085938 13.257812 C 51.027344 13.257812 50.972656 13.257812 50.914062 13.257812 C 50.914062 13.167969 50.914062 13.078125 50.914062 12.988281 C 51.054688 12.96875 51.195312 12.953125 51.339844 12.933594 C 51.339844 12.914062 51.339844 12.898438 51.339844 12.878906 Z M 51.339844 12.878906 "/>
<path style=" stroke:none;fill-rule:nonzero;fill:rgb(100%,100%,100%);fill-opacity:1;" d="M 33.234375 14.039062 C 33.542969 14.039062 33.851562 14.039062 34.171875 14.039062 C 34.171875 14.273438 34.171875 14.503906 34.171875 14.742188 C 34.226562 14.742188 34.28125 14.742188 34.339844 14.742188 C 34.339844 14.511719 34.339844 14.277344 34.339844 14.039062 C 34.621094 14.039062 34.902344 14.039062 35.191406 14.039062 C 35.191406 14.28125 35.191406 14.519531 35.191406 14.769531 C 35.132812 14.769531 35.078125 14.769531 35.019531 14.769531 C 34.992188 14.804688 34.964844 14.839844 34.933594 14.878906 C 34.484375 14.878906 34.039062 14.878906 33.574219 14.878906 C 33.574219 14.859375 33.574219 14.839844 33.574219 14.824219 C 33.519531 14.824219 33.460938 14.824219 33.40625 14.824219 C 33.40625 14.804688 33.40625 14.789062 33.40625 14.769531 C 33.347656 14.769531 33.292969 14.769531 33.234375 14.769531 C 33.234375 14.527344 33.234375 14.289062 33.234375 14.039062 Z M 33.234375 14.039062 "/>
<path style=" stroke:none;fill-rule:nonzero;fill:rgb(100%,100%,100%);fill-opacity:1;" d="M 39.523438 12.878906 C 39.972656 12.878906 40.421875 12.878906 40.886719 12.878906 C 40.886719 12.898438 40.886719 12.914062 40.886719 12.933594 C 40.96875 12.933594 41.054688 12.933594 41.140625 12.933594 C 41.140625 13.011719 41.140625 13.09375 41.140625 13.175781 C 40.945312 13.175781 40.746094 13.175781 40.546875 13.175781 C 40.546875 13.15625 40.546875 13.140625 40.546875 13.121094 C 40.460938 13.121094 40.375 13.121094 40.289062 13.121094 C 40.261719 13.09375 40.234375 13.070312 40.203125 13.039062 C 40.148438 13.039062 40.09375 13.039062 40.035156 13.039062 C 40.035156 13.09375 40.035156 13.148438 40.035156 13.203125 C 40.121094 13.203125 40.203125 13.203125 40.289062 13.203125 C 40.289062 13.230469 40.289062 13.257812 40.289062 13.285156 C 40.425781 13.28125 40.425781 13.28125 40.566406 13.277344 C 40.886719 13.285156 40.886719 13.285156 41.09375 13.320312 C 41.304688 13.433594 41.265625 13.558594 41.226562 13.6875 C 41.195312 13.707031 41.167969 13.726562 41.140625 13.742188 C 41.054688 13.742188 40.972656 13.742188 40.886719 13.742188 C 40.886719 13.761719 40.886719 13.777344 40.886719 13.796875 C 40.351562 13.796875 39.820312 13.796875 39.269531 13.796875 C 39.269531 13.777344 39.269531 13.761719 39.269531 13.742188 C 39.214844 13.742188 39.15625 13.742188 39.101562 13.742188 C 39.101562 13.664062 39.101562 13.582031 39.101562 13.5 C 39.410156 13.5 39.71875 13.5 40.035156 13.5 C 40.035156 13.554688 40.035156 13.605469 40.035156 13.660156 C 40.121094 13.660156 40.203125 13.660156 40.289062 13.660156 C 40.289062 13.582031 40.289062 13.5 40.289062 13.417969 C 40.234375 13.417969 40.179688 13.417969 40.121094 13.417969 C 40.121094 13.402344 40.121094 13.382812 40.121094 13.363281 C 39.921875 13.363281 39.726562 13.363281 39.523438 13.363281 C 39.46875 13.328125 39.414062 13.292969 39.355469 13.257812 C 39.300781 13.257812 39.242188 13.257812 39.183594 13.257812 C 39.183594 13.167969 39.183594 13.078125 39.183594 12.988281 C 39.242188 12.988281 39.296875 12.988281 39.355469 12.988281 C 39.410156 12.953125 39.46875 12.914062 39.523438 12.878906 Z M 39.523438 12.878906 "/>
<path style=" stroke:none;fill-rule:nonzero;fill:rgb(100%,100%,100%);fill-opacity:1;" d="M 42.21875 12.875 C 42.316406 12.875 42.417969 12.875 42.519531 12.875 C 42.625 12.875 42.734375 12.875 42.84375 12.875 C 42.957031 12.875 43.070312 12.878906 43.183594 12.878906 C 43.300781 12.878906 43.414062 12.878906 43.527344 12.878906 C 43.808594 12.878906 44.089844 12.878906 44.371094 12.878906 C 44.371094 12.96875 44.371094 13.058594 44.371094 13.148438 C 44.171875 13.164062 44.171875 13.164062 43.945312 13.175781 C 43.859375 13.15625 43.777344 13.140625 43.691406 13.121094 C 43.660156 13.34375 43.632812 13.566406 43.605469 13.796875 C 43.296875 13.796875 42.988281 13.796875 42.671875 13.796875 C 42.671875 13.574219 42.671875 13.351562 42.671875 13.121094 C 42.585938 13.121094 42.5 13.121094 42.414062 13.121094 C 42.414062 13.140625 42.414062 13.15625 42.414062 13.175781 C 42.273438 13.175781 42.132812 13.175781 41.988281 13.175781 C 41.90625 13.148438 41.90625 13.148438 41.894531 13.09375 C 41.894531 13.070312 41.894531 13.050781 41.894531 13.027344 C 41.894531 13.003906 41.894531 12.984375 41.894531 12.960938 C 41.910156 12.875 41.949219 12.878906 42.21875 12.875 Z M 42.21875 12.875 "/>
<path style=" stroke:none;fill-rule:nonzero;fill:rgb(100%,100%,100%);fill-opacity:1;" d="M 38.636719 14.035156 C 38.695312 14.035156 38.753906 14.035156 38.8125 14.035156 C 39.070312 14.035156 39.277344 14.039062 39.523438 14.066406 C 39.523438 14.148438 39.523438 14.226562 39.523438 14.308594 C 39.328125 14.308594 39.132812 14.308594 38.929688 14.308594 C 38.929688 14.285156 38.929688 14.257812 38.929688 14.230469 C 38.875 14.230469 38.816406 14.230469 38.761719 14.230469 C 38.730469 14.210938 38.703125 14.195312 38.675781 14.175781 C 38.617188 14.175781 38.5625 14.175781 38.503906 14.175781 C 38.503906 14.226562 38.503906 14.28125 38.503906 14.335938 C 38.589844 14.335938 38.671875 14.335938 38.761719 14.335938 C 38.761719 14.355469 38.761719 14.371094 38.761719 14.390625 C 38.929688 14.390625 39.097656 14.390625 39.269531 14.390625 C 39.324219 14.425781 39.382812 14.460938 39.441406 14.5 C 39.496094 14.5 39.550781 14.5 39.609375 14.5 C 39.609375 14.589844 39.609375 14.675781 39.609375 14.769531 C 39.554688 14.769531 39.496094 14.769531 39.441406 14.769531 C 39.441406 14.785156 39.441406 14.804688 39.441406 14.824219 C 39.382812 14.824219 39.328125 14.824219 39.269531 14.824219 C 39.269531 14.839844 39.269531 14.859375 39.269531 14.878906 C 38.765625 14.878906 38.261719 14.878906 37.738281 14.878906 C 37.601562 14.789062 37.644531 14.703125 37.65625 14.605469 C 37.738281 14.578125 37.738281 14.578125 37.894531 14.578125 C 37.957031 14.578125 38.015625 14.578125 38.078125 14.578125 C 38.140625 14.578125 38.203125 14.578125 38.265625 14.578125 C 38.421875 14.578125 38.421875 14.578125 38.503906 14.605469 C 38.507812 14.652344 38.507812 14.695312 38.503906 14.742188 C 38.589844 14.742188 38.671875 14.742188 38.761719 14.742188 C 38.761719 14.679688 38.761719 14.617188 38.761719 14.554688 C 38.675781 14.542969 38.589844 14.535156 38.503906 14.527344 C 38.503906 14.507812 38.503906 14.492188 38.503906 14.472656 C 38.429688 14.472656 38.351562 14.476562 38.269531 14.476562 C 37.960938 14.472656 37.871094 14.460938 37.65625 14.390625 C 37.609375 14.328125 37.609375 14.328125 37.613281 14.257812 C 37.613281 14.234375 37.609375 14.210938 37.609375 14.183594 C 37.65625 14.121094 37.65625 14.121094 37.789062 14.074219 C 38.078125 14.027344 38.316406 14.03125 38.636719 14.035156 Z M 38.636719 14.035156 "/>
<path style=" stroke:none;fill-rule:nonzero;fill:rgb(100%,100%,100%);fill-opacity:1;" d="M 50.828125 14.039062 C 51.101562 14.039062 51.378906 14.035156 51.660156 14.035156 C 51.746094 14.035156 51.828125 14.035156 51.917969 14.03125 C 52.019531 14.03125 52.019531 14.03125 52.125 14.03125 C 52.195312 14.03125 52.265625 14.03125 52.335938 14.03125 C 52.578125 14.042969 52.695312 14.066406 52.871094 14.121094 C 52.914062 14.199219 52.914062 14.199219 52.90625 14.285156 C 52.90625 14.3125 52.90625 14.34375 52.90625 14.371094 C 52.886719 14.40625 52.886719 14.40625 52.871094 14.445312 C 52.578125 14.507812 52.445312 14.503906 52.105469 14.5 C 52.078125 14.527344 52.050781 14.550781 52.019531 14.578125 C 51.9375 14.578125 51.851562 14.578125 51.765625 14.578125 C 51.765625 14.679688 51.765625 14.777344 51.765625 14.878906 C 51.457031 14.878906 51.148438 14.878906 50.828125 14.878906 C 50.828125 14.601562 50.828125 14.324219 50.828125 14.039062 Z M 51.765625 14.148438 C 51.765625 14.238281 51.765625 14.328125 51.765625 14.417969 C 51.847656 14.417969 51.933594 14.417969 52.019531 14.417969 C 52.019531 14.335938 52.019531 14.257812 52.019531 14.175781 C 51.9375 14.167969 51.851562 14.15625 51.765625 14.148438 Z M 51.765625 14.148438 "/>
<path style=" stroke:none;fill-rule:nonzero;fill:rgb(100%,100%,100%);fill-opacity:1;" d="M 41.90625 14.039062 C 42.632812 14.039062 43.363281 14.039062 44.113281 14.039062 C 44.113281 14.121094 44.113281 14.199219 44.113281 14.28125 C 43.976562 14.292969 43.835938 14.300781 43.691406 14.308594 C 43.660156 14.285156 43.632812 14.257812 43.605469 14.230469 C 43.550781 14.230469 43.492188 14.230469 43.433594 14.230469 C 43.433594 14.441406 43.433594 14.65625 43.433594 14.878906 C 43.15625 14.878906 42.875 14.878906 42.585938 14.878906 C 42.558594 14.664062 42.527344 14.449219 42.5 14.230469 C 42.445312 14.230469 42.386719 14.230469 42.328125 14.230469 C 42.328125 14.253906 42.328125 14.28125 42.328125 14.308594 C 42.191406 14.308594 42.050781 14.308594 41.90625 14.308594 C 41.90625 14.222656 41.90625 14.132812 41.90625 14.039062 Z M 41.90625 14.039062 "/>
<path style=" stroke:none;fill-rule:nonzero;fill:rgb(100%,100%,100%);fill-opacity:1;" d="M 16.308594 13.5 C 16.425781 13.5 16.542969 13.5 16.660156 13.5 C 16.863281 13.5 17.0625 13.5 17.265625 13.496094 C 17.402344 13.492188 17.542969 13.492188 17.679688 13.492188 C 17.75 13.492188 17.820312 13.488281 17.890625 13.488281 C 18.085938 13.488281 18.253906 13.488281 18.445312 13.5 C 18.621094 13.566406 18.621094 13.566406 18.699219 13.636719 C 18.566406 13.6875 18.492188 13.714844 18.28125 13.726562 C 18.21875 13.726562 18.15625 13.722656 18.09375 13.722656 C 17.992188 13.722656 17.992188 13.722656 17.890625 13.722656 C 17.820312 13.722656 17.75 13.722656 17.679688 13.722656 C 17.609375 13.71875 17.539062 13.71875 17.46875 13.71875 C 17.339844 13.71875 17.210938 13.71875 17.082031 13.71875 C 16.839844 13.714844 16.597656 13.714844 16.355469 13.71875 C 16.066406 13.714844 16.066406 13.714844 15.894531 13.6875 C 15.890625 13.636719 15.890625 13.582031 15.894531 13.527344 C 15.980469 13.5 15.980469 13.5 16.308594 13.5 Z M 16.308594 13.5 "/>
<path style=" stroke:none;fill-rule:nonzero;fill:rgb(100%,100%,100%);fill-opacity:1;" d="M 18.441406 14.898438 C 18.511719 14.898438 18.582031 14.898438 18.65625 14.898438 C 18.757812 14.898438 18.757812 14.898438 18.863281 14.898438 C 18.925781 14.898438 18.988281 14.898438 19.050781 14.898438 C 19.210938 14.902344 19.210938 14.902344 19.378906 14.957031 C 19.332031 15.082031 19.332031 15.082031 19.210938 15.121094 C 19.097656 15.121094 18.980469 15.121094 18.867188 15.121094 C 18.796875 15.121094 18.730469 15.121094 18.660156 15.121094 C 18.585938 15.121094 18.515625 15.121094 18.441406 15.121094 C 18.367188 15.121094 18.292969 15.121094 18.21875 15.121094 C 18.039062 15.121094 17.859375 15.121094 17.679688 15.121094 C 17.648438 15.058594 17.621094 14.996094 17.59375 14.929688 C 17.777344 14.871094 18.1875 14.898438 18.441406 14.898438 Z M 18.441406 14.898438 "/>
<path style=" stroke:none;fill-rule:nonzero;fill:rgb(100%,100%,100%);fill-opacity:1;" d="M 17.5 14.167969 C 17.609375 14.167969 17.609375 14.167969 17.722656 14.167969 C 17.972656 14.175781 18.085938 14.203125 18.273438 14.257812 C 18.242188 14.320312 18.242188 14.320312 18.191406 14.390625 C 17.957031 14.429688 17.769531 14.421875 17.511719 14.421875 C 17.417969 14.421875 17.328125 14.425781 17.234375 14.425781 C 17 14.417969 17 14.417969 16.828125 14.363281 C 16.851562 14.28125 16.851562 14.28125 16.914062 14.203125 C 17.121094 14.167969 17.269531 14.167969 17.5 14.167969 Z M 17.5 14.167969 "/>
<path style=" stroke:none;fill-rule:nonzero;fill:rgb(100%,100%,100%);fill-opacity:1;" d="M 16.148438 14.902344 C 16.515625 14.902344 16.878906 14.902344 17.253906 14.902344 C 17.28125 14.949219 17.3125 14.992188 17.339844 15.039062 C 17.253906 15.078125 17.253906 15.078125 17.171875 15.121094 C 16.953125 15.128906 16.953125 15.128906 16.703125 15.128906 C 16.621094 15.128906 16.535156 15.128906 16.449219 15.128906 C 16.234375 15.121094 16.234375 15.121094 16.066406 15.066406 C 16.09375 15.011719 16.121094 14.960938 16.148438 14.902344 Z M 16.148438 14.902344 "/>
<path style=" stroke:none;fill-rule:nonzero;fill:rgb(100%,100%,100%);fill-opacity:1;" d="M 18.222656 13.84375 C 18.289062 13.84375 18.355469 13.84375 18.425781 13.84375 C 18.65625 13.851562 18.730469 13.871094 18.871094 13.933594 C 18.859375 13.988281 18.859375 13.988281 18.785156 14.039062 C 18.453125 14.074219 18.203125 14.074219 17.851562 14.066406 C 17.792969 14.050781 17.738281 14.03125 17.679688 14.011719 C 17.734375 13.871094 17.78125 13.847656 18.222656 13.84375 Z M 18.222656 13.84375 "/>
</g>
</svg>
